<svg id="Warstwa_1" data-name="Warstwa 1" xmlns="http://www.w3.org/2000/svg" viewBox="0 0 1000 1000"><path d="M124,539.72V434.27h15.6v43.92h14l21.53-43.92h17l-24.85,50.56,26.15,54.89H175.86L153.32,492.2H139.6v47.52Z"/><path d="M214.86,539.72V460.28h15V475q3.75-16.17,21.38-16.18,12.71,0,20.15,7.87t7.44,21.6v5.34h-16v-4q0-8.52-4.27-13.07T246.64,472q-7.66,0-11.92,4.62t-4.26,13v50.12Z"/><path d="M309,565.73l11.41-30.63-29.61-74.82H308l16.61,44.77q1,2.9,2.1,6.94t1.66,6.64Q329,516,330,512t2-6.94l15.6-44.77h16.61L325.51,565.73Z"/><path d="M383.14,565.73V460.28h15.45v15.16h.15a18.09,18.09,0,0,1,6.86-12.2q5.7-4.41,14.52-4.41,12,0,19.21,8.09t7.22,21.81v22.39q0,13.88-7.22,22t-19.21,8.09q-8.82,0-14.52-4.41a17.6,17.6,0,0,1-6.72-12.2h-.57l.43,18.49v22.68Zm31.63-38.14q7.67,0,11.92-4.41T431,510.4V489.6q0-8.37-4.26-12.79t-11.92-4.4q-7.36,0-11.7,4.55t-4.33,12.64v20.8q0,8.08,4.33,12.64T414.77,527.59Z"/><path d="M509.39,539.72q-10.83,0-16.9-5.92t-6.07-16.61V474.43h-22V460.28h22V437.89H502v22.39h31.2v14.15H502v42.76q0,8.38,8.09,8.38h21.67v14.15Z"/><path d="M582.62,541q-14.88,0-23.47-8.3t-8.6-22.47V489.74q0-14.14,8.6-22.46T582.62,459q14.88,0,23.55,8.31t8.67,22.46v20.51q0,14.16-8.67,22.47T582.62,541Zm0-13.72q7.8,0,12.21-4.4t4.41-12.65V489.74q0-8.24-4.41-12.64t-12.21-4.4q-7.8,0-12.13,4.4t-4.33,12.64v20.51q0,8.25,4.33,12.65T582.62,527.3Z"/><path d="M636.21,539.72V460.28h15.46v15.16h.14a18.42,18.42,0,0,1,6.65-12.2q5.49-4.41,14.44-4.41,11.85,0,18.93,7.59t7.07,20.43v52.87H683.3V488.59q0-7.8-4.19-12t-11.41-4.19q-7.37,0-11.63,4.48t-4.26,12.71v50.12Z"/><path d="M752.64,541.17q-14.45,0-22.89-8.31t-8.46-22.61v-50H736.9v49.83q0,8.39,4.18,12.93t11.56,4.55q7.51,0,11.77-4.55t4.27-12.93V460.28h15.6v50q0,14.31-8.6,22.61T752.64,541.17Z"/><path d="M806.23,539.72V460.28h13.15v10.11h.72a14.13,14.13,0,0,1,4.26-8.45,12.45,12.45,0,0,1,8.74-3.11,12.06,12.06,0,0,1,8.31,3,16.09,16.09,0,0,1,4.69,8.53h.58a13.59,13.59,0,0,1,4.48-8.45,13.23,13.23,0,0,1,9-3.11,13.84,13.84,0,0,1,11.56,5.64Q876,470.1,876,479.2v60.52H862v-59.8c0-3-.65-5.3-2-6.93a6.69,6.69,0,0,0-5.56-2.46,6.83,6.83,0,0,0-5.49,2.39c-1.35,1.59-2,3.87-2,6.86v59.94H835.26v-59.8q0-9.39-7.65-9.39-7.36,0-7.37,9.25v59.94Z"/></svg>